<?xml version="1.0" standalone="no"?>
<!DOCTYPE svg PUBLIC "-//W3C//DTD SVG 20010904//EN"
 "http://www.w3.org/TR/2001/REC-SVG-20010904/DTD/svg10.dtd">
<svg version="1.0" xmlns="http://www.w3.org/2000/svg"
 width="283.000000pt" height="290.000000pt" viewBox="0 0 283.000000 290.000000"
 preserveAspectRatio="xMidYMid meet">

<g transform="translate(0.000000,290.000000) scale(0.100000,-0.100000)"
fill="#000000" stroke="none">
<path d="M570 2546 c-112 -82 -257 -251 -336 -391 -269 -482 -191 -1101 188
-1501 39 -41 74 -71 79 -68 5 3 -20 38 -57 77 -175 189 -288 415 -330 661 -22
134 -15 374 16 496 43 172 90 280 188 426 60 89 193 230 265 281 20 14 37 32
37 40 0 17 2 18 -50 -21z"/>
<path d="M2090 2568 c0 -7 17 -24 37 -38 113 -77 306 -313 364 -445 77 -177
103 -270 120 -434 13 -129 1 -295 -30 -419 -11 -40 -15 -74 -10 -78 12 -7 23
23 45 126 26 117 26 380 1 500 -63 296 -221 560 -445 743 -73 60 -82 65 -82
45z"/>
<path d="M1103 2296 c-23 -8 -64 -29 -90 -49 -26 -19 -77 -50 -112 -68 -59
-31 -72 -34 -154 -34 -81 0 -90 -2 -108 -24 -31 -38 -27 -149 8 -212 43 -79
133 -134 270 -165 39 -8 78 -23 87 -33 11 -12 16 -44 18 -116 2 -68 7 -100 16
-103 9 -3 12 22 12 102 0 134 -10 148 -125 177 -197 49 -281 126 -278 257 2
84 13 96 80 87 87 -11 162 17 306 113 62 42 72 46 145 50 88 5 170 -13 231
-52 49 -32 66 -52 97 -120 23 -51 27 -75 34 -214 11 -220 22 -245 200 -457 73
-87 147 -196 195 -287 17 -32 36 -58 43 -58 17 0 16 3 -17 68 -43 84 -139 223
-241 346 -131 159 -142 185 -151 377 -11 222 -48 313 -154 374 -81 48 -228 67
-312 41z"/>
<path d="M1217 2158 c-93 -124 -125 -301 -66 -364 40 -43 78 -58 154 -58 89
-1 122 15 153 75 43 84 55 279 18 279 -10 0 -12 -16 -8 -69 8 -122 -26 -223
-86 -248 -49 -21 -148 -14 -184 12 -76 56 -65 194 27 333 19 30 35 58 35 63 0
19 -20 8 -43 -23z"/>
<path d="M990 2152 c0 -16 41 -42 66 -42 25 0 73 35 62 45 -3 4 -16 1 -28 -5
-22 -12 -47 -10 -82 5 -11 4 -18 3 -18 -3z"/>
<path d="M1173 1628 c-5 -7 -26 -41 -46 -74 -40 -67 -53 -74 -131 -74 -72 0
-110 -28 -136 -98 -31 -86 -37 -95 -80 -120 -62 -35 -62 -77 3 -179 25 -39 28
-41 94 -48 75 -8 106 -21 142 -58 28 -31 38 -96 22 -152 -7 -25 -7 -43 -1 -49
15 -15 33 43 34 110 1 52 -3 66 -27 97 -37 49 -79 69 -156 76 l-65 6 -33 55
c-44 73 -43 94 7 125 42 26 64 54 75 95 23 86 51 110 130 110 71 0 105 21 150
95 22 36 44 64 50 62 24 -8 48 -73 55 -148 7 -79 7 -79 61 -137 100 -105 167
-239 215 -430 31 -125 32 -128 45 -115 14 14 -39 217 -87 328 -40 92 -110 199
-168 254 -32 31 -36 40 -36 85 0 123 -75 239 -117 184z"/>
<path d="M900 1310 c0 -28 79 -40 100 -15 17 21 7 29 -19 15 -15 -7 -27 -8
-40 0 -25 13 -41 13 -41 0z"/>
<path d="M2366 1138 c-39 -56 4 -163 57 -142 23 8 40 60 33 96 -13 64 -61 88
-90 46z"/>
<path d="M2151 1117 c-13 -34 -2 -74 29 -107 49 -52 98 -32 87 37 -12 72 -96
123 -116 70z"/>
<path d="M2016 954 c-22 -22 -20 -37 11 -68 61 -61 170 -40 134 27 -27 50
-112 75 -145 41z"/>
<path d="M2357 930 c-112 -6 -134 -19 -122 -75 4 -16 10 -65 14 -109 5 -65 10
-81 30 -97 43 -35 70 -25 139 49 120 126 146 178 105 214 -25 21 -54 25 -166
18z"/>
<path d="M2030 750 c-23 -23 -15 -51 22 -71 23 -13 82 -6 104 12 20 17 17 57
-5 69 -34 17 -99 12 -121 -10z"/>
<path d="M561 609 c-22 -28 -41 -56 -41 -60 0 -12 14 -11 27 2 8 8 17 7 34 -5
75 -52 125 35 53 91 l-32 24 -41 -52z m68 11 c25 -13 34 -39 20 -56 -15 -18
-40 -18 -64 0 -18 13 -18 15 -2 40 20 29 21 30 46 16z"/>
<path d="M2041 604 l-31 -25 41 -55 c23 -30 45 -54 49 -54 15 0 62 43 69 64 5
11 4 33 -1 49 -19 52 -78 63 -127 21z m107 -26 c15 -31 8 -52 -23 -72 -23 -15
-25 -14 -54 26 -17 23 -31 45 -31 50 0 4 12 14 27 22 34 17 64 8 81 -26z"/>
<path d="M720 498 c-16 -29 -30 -60 -30 -69 0 -15 88 -65 97 -55 5 5 -56 46
-69 46 -13 0 -9 27 5 38 9 8 21 6 42 -8 33 -22 45 -25 45 -11 0 5 -14 14 -30
21 -38 16 -44 25 -30 50 l11 21 35 -21 c19 -12 40 -20 47 -17 6 2 -12 16 -40
30 l-53 27 -30 -52z"/>
<path d="M1876 502 c-7 -11 52 -122 65 -122 18 0 89 40 89 50 0 6 -18 1 -41
-10 -23 -12 -42 -20 -44 -18 -1 2 -16 27 -33 56 -16 30 -32 49 -36 44z"/>
<path d="M913 457 c31 -12 33 -24 12 -74 -17 -39 -19 -63 -7 -63 5 0 16 25 26
56 17 53 18 55 47 49 50 -11 32 11 -24 28 -59 19 -99 21 -54 4z"/>
<path d="M1723 445 l-31 -13 23 -63 c23 -64 47 -92 38 -45 -7 34 19 44 63 23
36 -18 48 -5 14 13 -16 9 -18 15 -10 30 14 26 13 36 -6 54 -19 19 -49 20 -91
1z m84 -22 c4 -10 -2 -23 -16 -35 -23 -18 -61 -25 -61 -10 0 4 -3 17 -6 29 -4
15 -1 22 13 26 38 10 64 6 70 -10z"/>
<path d="M1512 384 c-16 -11 -22 -25 -22 -54 0 -73 86 -105 133 -49 23 28 22
60 -4 93 -24 30 -72 35 -107 10z m82 -9 c37 -37 21 -105 -26 -105 -54 0 -79
74 -36 104 28 20 43 20 62 1z"/>
<path d="M1181 338 c12 -29 25 -63 30 -76 11 -29 24 -22 49 29 11 21 24 39 29
39 4 0 16 -20 25 -45 10 -25 22 -45 26 -45 9 0 80 120 80 133 0 22 -23 0 -45
-43 -14 -27 -28 -50 -31 -50 -3 0 -14 20 -25 45 -11 25 -24 45 -29 45 -5 0
-19 -18 -30 -40 -11 -22 -24 -40 -29 -40 -5 0 -18 23 -29 50 -12 28 -26 50
-31 50 -6 0 -2 -23 10 -52z"/>
</g>
</svg>
